<?xml version="1.0" encoding="UTF-8"?><svg id="Layer_1" xmlns="http://www.w3.org/2000/svg" viewBox="0 0 1920 1080"><defs><style>.cls-1{fill:none;stroke:#c5c5c5;stroke-miterlimit:10;}</style></defs><rect class="cls-1" width="1920" height="1080"/><line class="cls-1" x1="1920" y1="10.69" y2="10.69"/><line class="cls-1" x1="1920" y1="21.39" y2="21.39"/><line class="cls-1" x1="1920" y1="32.08" y2="32.08"/><line class="cls-1" x1="1920" y1="42.77" y2="42.77"/><line class="cls-1" x1="1920" y1="53.47" y2="53.47"/><line class="cls-1" x1="1920" y1="64.16" y2="64.16"/><line class="cls-1" x1="1920" y1="74.85" y2="74.85"/><line class="cls-1" x1="1920" y1="85.54" y2="85.54"/><line class="cls-1" x1="1920" y1="96.24" y2="96.24"/><line class="cls-1" x1="1920" y1="106.93" y2="106.93"/><line class="cls-1" x1="1920" y1="117.62" y2="117.62"/><line class="cls-1" x1="1920" y1="128.32" y2="128.32"/><line class="cls-1" x1="1920" y1="139.01" y2="139.01"/><line class="cls-1" x1="1920" y1="149.7" y2="149.7"/><line class="cls-1" x1="1920" y1="160.4" y2="160.4"/><line class="cls-1" x1="1920" y1="171.09" y2="171.09"/><line class="cls-1" x1="1920" y1="181.78" y2="181.78"/><line class="cls-1" x1="1920" y1="192.48" y2="192.48"/><line class="cls-1" x1="1920" y1="203.17" y2="203.17"/><line class="cls-1" x1="1920" y1="213.86" y2="213.86"/><line class="cls-1" x1="1920" y1="224.55" y2="224.55"/><line class="cls-1" x1="1920" y1="235.25" y2="235.25"/><line class="cls-1" x1="1920" y1="245.94" y2="245.94"/><line class="cls-1" x1="1920" y1="256.63" y2="256.63"/><line class="cls-1" x1="1920" y1="267.33" y2="267.33"/><line class="cls-1" x1="1920" y1="278.02" y2="278.02"/><line class="cls-1" x1="1920" y1="288.71" y2="288.71"/><line class="cls-1" x1="1920" y1="299.41" y2="299.41"/><line class="cls-1" x1="1920" y1="310.1" y2="310.1"/><line class="cls-1" x1="1920" y1="320.79" y2="320.79"/><line class="cls-1" x1="1920" y1="331.49" y2="331.49"/><line class="cls-1" x1="1920" y1="342.18" y2="342.18"/><line class="cls-1" x1="1920" y1="352.87" y2="352.87"/><line class="cls-1" x1="1920" y1="363.56" y2="363.56"/><line class="cls-1" x1="1920" y1="374.26" y2="374.26"/><line class="cls-1" x1="1920" y1="384.95" y2="384.95"/><line class="cls-1" x1="1920" y1="395.64" y2="395.64"/><line class="cls-1" x1="1920" y1="406.34" y2="406.34"/><line class="cls-1" x1="1920" y1="417.03" y2="417.03"/><line class="cls-1" x1="1920" y1="427.72" y2="427.72"/><line class="cls-1" x1="1920" y1="438.42" y2="438.42"/><line class="cls-1" x1="1920" y1="449.11" y2="449.11"/><line class="cls-1" x1="1920" y1="459.8" y2="459.8"/><line class="cls-1" x1="1920" y1="470.5" y2="470.5"/><line class="cls-1" x1="1920" y1="481.19" y2="481.19"/><line class="cls-1" x1="1920" y1="491.88" y2="491.88"/><line class="cls-1" x1="1920" y1="502.57" y2="502.57"/><line class="cls-1" x1="1920" y1="513.27" y2="513.27"/><line class="cls-1" x1="1920" y1="523.96" y2="523.96"/><line class="cls-1" x1="1920" y1="534.65" y2="534.65"/><line class="cls-1" x1="1920" y1="545.35" y2="545.35"/><line class="cls-1" x1="1920" y1="556.04" y2="556.04"/><line class="cls-1" x1="1920" y1="566.73" y2="566.73"/><line class="cls-1" x1="1920" y1="577.43" y2="577.43"/><line class="cls-1" x1="1920" y1="588.12" y2="588.12"/><line class="cls-1" x1="1920" y1="598.81" y2="598.81"/><line class="cls-1" x1="1920" y1="609.5" y2="609.5"/><line class="cls-1" x1="1920" y1="620.2" y2="620.2"/><line class="cls-1" x1="1920" y1="630.89" y2="630.89"/><line class="cls-1" x1="1920" y1="641.58" y2="641.58"/><line class="cls-1" x1="1920" y1="652.28" y2="652.28"/><line class="cls-1" x1="1920" y1="662.97" y2="662.97"/><line class="cls-1" x1="1920" y1="673.66" y2="673.66"/><line class="cls-1" x1="1920" y1="684.36" y2="684.36"/><line class="cls-1" x1="1920" y1="695.05" y2="695.05"/><line class="cls-1" x1="1920" y1="705.74" y2="705.74"/><line class="cls-1" x1="1920" y1="716.44" y2="716.44"/><line class="cls-1" x1="1920" y1="727.13" y2="727.13"/><line class="cls-1" x1="1920" y1="737.82" y2="737.82"/><line class="cls-1" x1="1920" y1="748.51" y2="748.51"/><line class="cls-1" x1="1920" y1="759.21" y2="759.21"/><line class="cls-1" x1="1920" y1="769.9" y2="769.9"/><line class="cls-1" x1="1920" y1="780.59" y2="780.59"/><line class="cls-1" x1="1920" y1="791.29" y2="791.29"/><line class="cls-1" x1="1920" y1="801.98" y2="801.98"/><line class="cls-1" x1="1920" y1="812.67" y2="812.67"/><line class="cls-1" x1="1920" y1="823.37" y2="823.37"/><line class="cls-1" x1="1920" y1="834.06" y2="834.06"/><line class="cls-1" x1="1920" y1="844.75" y2="844.75"/><line class="cls-1" x1="1920" y1="855.45" y2="855.45"/><line class="cls-1" x1="1920" y1="866.14" y2="866.14"/><line class="cls-1" x1="1920" y1="876.83" y2="876.83"/><line class="cls-1" x1="1920" y1="887.52" y2="887.52"/><line class="cls-1" x1="1920" y1="898.22" y2="898.22"/><line class="cls-1" x1="1920" y1="908.91" y2="908.91"/><line class="cls-1" x1="1920" y1="919.6" y2="919.6"/><line class="cls-1" x1="1920" y1="930.3" y2="930.3"/><line class="cls-1" x1="1920" y1="940.99" y2="940.99"/><line class="cls-1" x1="1920" y1="951.68" y2="951.68"/><line class="cls-1" x1="1920" y1="962.38" y2="962.38"/><line class="cls-1" x1="1920" y1="973.07" y2="973.07"/><line class="cls-1" x1="1920" y1="983.76" y2="983.76"/><line class="cls-1" x1="1920" y1="994.46" y2="994.46"/><line class="cls-1" x1="1920" y1="1005.15" y2="1005.15"/><line class="cls-1" x1="1920" y1="1015.84" y2="1015.84"/><line class="cls-1" x1="1920" y1="1026.53" y2="1026.53"/><line class="cls-1" x1="1920" y1="1037.23" y2="1037.23"/><line class="cls-1" x1="1920" y1="1047.92" y2="1047.92"/><line class="cls-1" x1="1920" y1="1058.61" y2="1058.61"/><line class="cls-1" x1="1920" y1="1069.31" y2="1069.31"/><line class="cls-1" x1="9.55" y1="1080" x2="9.55"/><line class="cls-1" x1="19.1" y1="1080" x2="19.1"/><line class="cls-1" x1="28.66" y1="1080" x2="28.66"/><line class="cls-1" x1="38.21" y1="1080" x2="38.21"/><line class="cls-1" x1="47.76" y1="1080" x2="47.76"/><line class="cls-1" x1="57.31" y1="1080" x2="57.31"/><line class="cls-1" x1="66.87" y1="1080" x2="66.87"/><line class="cls-1" x1="76.42" y1="1080" x2="76.42"/><line class="cls-1" x1="85.97" y1="1080" x2="85.97"/><line class="cls-1" x1="95.52" y1="1080" x2="95.52"/><line class="cls-1" x1="105.07" y1="1080" x2="105.07"/><line class="cls-1" x1="114.63" y1="1080" x2="114.63"/><line class="cls-1" x1="124.18" y1="1080" x2="124.18"/><line class="cls-1" x1="133.73" y1="1080" x2="133.73"/><line class="cls-1" x1="143.28" y1="1080" x2="143.28"/><line class="cls-1" x1="152.84" y1="1080" x2="152.84"/><line class="cls-1" x1="162.39" y1="1080" x2="162.39"/><line class="cls-1" x1="171.94" y1="1080" x2="171.94"/><line class="cls-1" x1="181.49" y1="1080" x2="181.49"/><line class="cls-1" x1="191.04" y1="1080" x2="191.04"/><line class="cls-1" x1="200.6" y1="1080" x2="200.6"/><line class="cls-1" x1="210.15" y1="1080" x2="210.15"/><line class="cls-1" x1="219.7" y1="1080" x2="219.7"/><line class="cls-1" x1="229.25" y1="1080" x2="229.25"/><line class="cls-1" x1="238.81" y1="1080" x2="238.81"/><line class="cls-1" x1="248.36" y1="1080" x2="248.36"/><line class="cls-1" x1="257.91" y1="1080" x2="257.91"/><line class="cls-1" x1="267.46" y1="1080" x2="267.46"/><line class="cls-1" x1="277.01" y1="1080" x2="277.01"/><line class="cls-1" x1="286.57" y1="1080" x2="286.57"/><line class="cls-1" x1="296.12" y1="1080" x2="296.12"/><line class="cls-1" x1="305.67" y1="1080" x2="305.67"/><line class="cls-1" x1="315.22" y1="1080" x2="315.22"/><line class="cls-1" x1="324.78" y1="1080" x2="324.78"/><line class="cls-1" x1="334.33" y1="1080" x2="334.33"/><line class="cls-1" x1="343.88" y1="1080" x2="343.88"/><line class="cls-1" x1="353.43" y1="1080" x2="353.43"/><line class="cls-1" x1="362.99" y1="1080" x2="362.99"/><line class="cls-1" x1="372.54" y1="1080" x2="372.54"/><line class="cls-1" x1="382.09" y1="1080" x2="382.09"/><line class="cls-1" x1="391.64" y1="1080" x2="391.64"/><line class="cls-1" x1="401.19" y1="1080" x2="401.19"/><line class="cls-1" x1="410.75" y1="1080" x2="410.75"/><line class="cls-1" x1="420.3" y1="1080" x2="420.3"/><line class="cls-1" x1="429.85" y1="1080" x2="429.85"/><line class="cls-1" x1="439.4" y1="1080" x2="439.4"/><line class="cls-1" x1="448.96" y1="1080" x2="448.96"/><line class="cls-1" x1="458.51" y1="1080" x2="458.51"/><line class="cls-1" x1="468.06" y1="1080" x2="468.06"/><line class="cls-1" x1="477.61" y1="1080" x2="477.61"/><line class="cls-1" x1="487.16" y1="1080" x2="487.16"/><line class="cls-1" x1="496.72" y1="1080" x2="496.72"/><line class="cls-1" x1="506.27" y1="1080" x2="506.27"/><line class="cls-1" x1="515.82" y1="1080" x2="515.82"/><line class="cls-1" x1="525.37" y1="1080" x2="525.37"/><line class="cls-1" x1="534.93" y1="1080" x2="534.93"/><line class="cls-1" x1="544.48" y1="1080" x2="544.48"/><line class="cls-1" x1="554.03" y1="1080" x2="554.03"/><line class="cls-1" x1="563.58" y1="1080" x2="563.58"/><line class="cls-1" x1="573.13" y1="1080" x2="573.13"/><line class="cls-1" x1="582.69" y1="1080" x2="582.69"/><line class="cls-1" x1="592.24" y1="1080" x2="592.24"/><line class="cls-1" x1="601.79" y1="1080" x2="601.79"/><line class="cls-1" x1="611.34" y1="1080" x2="611.34"/><line class="cls-1" x1="620.9" y1="1080" x2="620.9"/><line class="cls-1" x1="630.45" y1="1080" x2="630.45"/><line class="cls-1" x1="640" y1="1080" x2="640"/><line class="cls-1" x1="649.55" y1="1080" x2="649.55"/><line class="cls-1" x1="659.1" y1="1080" x2="659.1"/><line class="cls-1" x1="668.66" y1="1080" x2="668.66"/><line class="cls-1" x1="678.21" y1="1080" x2="678.21"/><line class="cls-1" x1="687.76" y1="1080" x2="687.76"/><line class="cls-1" x1="697.31" y1="1080" x2="697.31"/><line class="cls-1" x1="706.87" y1="1080" x2="706.87"/><line class="cls-1" x1="716.42" y1="1080" x2="716.42"/><line class="cls-1" x1="725.97" y1="1080" x2="725.97"/><line class="cls-1" x1="735.52" y1="1080" x2="735.52"/><line class="cls-1" x1="745.07" y1="1080" x2="745.07"/><line class="cls-1" x1="754.63" y1="1080" x2="754.63"/><line class="cls-1" x1="764.18" y1="1080" x2="764.18"/><line class="cls-1" x1="773.73" y1="1080" x2="773.73"/><line class="cls-1" x1="783.28" y1="1080" x2="783.28"/><line class="cls-1" x1="792.84" y1="1080" x2="792.84"/><line class="cls-1" x1="802.39" y1="1080" x2="802.39"/><line class="cls-1" x1="811.94" y1="1080" x2="811.94"/><line class="cls-1" x1="821.49" y1="1080" x2="821.49"/><line class="cls-1" x1="831.04" y1="1080" x2="831.04"/><line class="cls-1" x1="840.6" y1="1080" x2="840.6"/><line class="cls-1" x1="850.15" y1="1080" x2="850.15"/><line class="cls-1" x1="859.7" y1="1080" x2="859.7"/><line class="cls-1" x1="869.25" y1="1080" x2="869.25"/><line class="cls-1" x1="878.81" y1="1080" x2="878.81"/><line class="cls-1" x1="888.36" y1="1080" x2="888.36"/><line class="cls-1" x1="897.91" y1="1080" x2="897.91"/><line class="cls-1" x1="907.46" y1="1080" x2="907.46"/><line class="cls-1" x1="917.01" y1="1080" x2="917.01"/><line class="cls-1" x1="926.57" y1="1080" x2="926.57"/><line class="cls-1" x1="936.12" y1="1080" x2="936.12"/><line class="cls-1" x1="945.67" y1="1080" x2="945.67"/><line class="cls-1" x1="955.22" y1="1080" x2="955.22"/><line class="cls-1" x1="964.78" y1="1080" x2="964.78"/><line class="cls-1" x1="974.33" y1="1080" x2="974.33"/><line class="cls-1" x1="983.88" y1="1080" x2="983.88"/><line class="cls-1" x1="993.43" y1="1080" x2="993.43"/><line class="cls-1" x1="1002.99" y1="1080" x2="1002.99"/><line class="cls-1" x1="1012.54" y1="1080" x2="1012.54"/><line class="cls-1" x1="1022.09" y1="1080" x2="1022.09"/><line class="cls-1" x1="1031.64" y1="1080" x2="1031.64"/><line class="cls-1" x1="1041.19" y1="1080" x2="1041.19"/><line class="cls-1" x1="1050.75" y1="1080" x2="1050.75"/><line class="cls-1" x1="1060.3" y1="1080" x2="1060.3"/><line class="cls-1" x1="1069.85" y1="1080" x2="1069.85"/><line class="cls-1" x1="1079.4" y1="1080" x2="1079.4"/><line class="cls-1" x1="1088.96" y1="1080" x2="1088.96"/><line class="cls-1" x1="1098.51" y1="1080" x2="1098.51"/><line class="cls-1" x1="1108.06" y1="1080" x2="1108.06"/><line class="cls-1" x1="1117.61" y1="1080" x2="1117.61"/><line class="cls-1" x1="1127.16" y1="1080" x2="1127.16"/><line class="cls-1" x1="1136.72" y1="1080" x2="1136.72"/><line class="cls-1" x1="1146.27" y1="1080" x2="1146.27"/><line class="cls-1" x1="1155.82" y1="1080" x2="1155.82"/><line class="cls-1" x1="1165.37" y1="1080" x2="1165.37"/><line class="cls-1" x1="1174.93" y1="1080" x2="1174.93"/><line class="cls-1" x1="1184.48" y1="1080" x2="1184.48"/><line class="cls-1" x1="1194.03" y1="1080" x2="1194.03"/><line class="cls-1" x1="1203.58" y1="1080" x2="1203.58"/><line class="cls-1" x1="1213.13" y1="1080" x2="1213.13"/><line class="cls-1" x1="1222.69" y1="1080" x2="1222.69"/><line class="cls-1" x1="1232.24" y1="1080" x2="1232.24"/><line class="cls-1" x1="1241.79" y1="1080" x2="1241.79"/><line class="cls-1" x1="1251.34" y1="1080" x2="1251.34"/><line class="cls-1" x1="1260.9" y1="1080" x2="1260.9"/><line class="cls-1" x1="1270.45" y1="1080" x2="1270.45"/><line class="cls-1" x1="1280" y1="1080" x2="1280"/><line class="cls-1" x1="1289.55" y1="1080" x2="1289.55"/><line class="cls-1" x1="1299.1" y1="1080" x2="1299.1"/><line class="cls-1" x1="1308.66" y1="1080" x2="1308.66"/><line class="cls-1" x1="1318.21" y1="1080" x2="1318.21"/><line class="cls-1" x1="1327.76" y1="1080" x2="1327.76"/><line class="cls-1" x1="1337.31" y1="1080" x2="1337.31"/><line class="cls-1" x1="1346.87" y1="1080" x2="1346.87"/><line class="cls-1" x1="1356.42" y1="1080" x2="1356.42"/><line class="cls-1" x1="1365.97" y1="1080" x2="1365.97"/><line class="cls-1" x1="1375.52" y1="1080" x2="1375.52"/><line class="cls-1" x1="1385.07" y1="1080" x2="1385.07"/><line class="cls-1" x1="1394.63" y1="1080" x2="1394.63"/><line class="cls-1" x1="1404.18" y1="1080" x2="1404.18"/><line class="cls-1" x1="1413.73" y1="1080" x2="1413.73"/><line class="cls-1" x1="1423.28" y1="1080" x2="1423.28"/><line class="cls-1" x1="1432.84" y1="1080" x2="1432.84"/><line class="cls-1" x1="1442.39" y1="1080" x2="1442.39"/><line class="cls-1" x1="1451.94" y1="1080" x2="1451.94"/><line class="cls-1" x1="1461.49" y1="1080" x2="1461.49"/><line class="cls-1" x1="1471.04" y1="1080" x2="1471.04"/><line class="cls-1" x1="1480.6" y1="1080" x2="1480.6"/><line class="cls-1" x1="1490.15" y1="1080" x2="1490.15"/><line class="cls-1" x1="1499.7" y1="1080" x2="1499.7"/><line class="cls-1" x1="1509.25" y1="1080" x2="1509.25"/><line class="cls-1" x1="1518.81" y1="1080" x2="1518.81"/><line class="cls-1" x1="1528.36" y1="1080" x2="1528.36"/><line class="cls-1" x1="1537.91" y1="1080" x2="1537.91"/><line class="cls-1" x1="1547.46" y1="1080" x2="1547.46"/><line class="cls-1" x1="1557.01" y1="1080" x2="1557.01"/><line class="cls-1" x1="1566.57" y1="1080" x2="1566.57"/><line class="cls-1" x1="1576.12" y1="1080" x2="1576.12"/><line class="cls-1" x1="1585.67" y1="1080" x2="1585.67"/><line class="cls-1" x1="1595.22" y1="1080" x2="1595.22"/><line class="cls-1" x1="1604.78" y1="1080" x2="1604.78"/><line class="cls-1" x1="1614.33" y1="1080" x2="1614.33"/><line class="cls-1" x1="1623.88" y1="1080" x2="1623.88"/><line class="cls-1" x1="1633.43" y1="1080" x2="1633.43"/><line class="cls-1" x1="1642.99" y1="1080" x2="1642.99"/><line class="cls-1" x1="1652.54" y1="1080" x2="1652.54"/><line class="cls-1" x1="1662.09" y1="1080" x2="1662.09"/><line class="cls-1" x1="1671.64" y1="1080" x2="1671.64"/><line class="cls-1" x1="1681.19" y1="1080" x2="1681.19"/><line class="cls-1" x1="1690.75" y1="1080" x2="1690.75"/><line class="cls-1" x1="1700.3" y1="1080" x2="1700.3"/><line class="cls-1" x1="1709.85" y1="1080" x2="1709.85"/><line class="cls-1" x1="1719.4" y1="1080" x2="1719.4"/><line class="cls-1" x1="1728.96" y1="1080" x2="1728.96"/><line class="cls-1" x1="1738.51" y1="1080" x2="1738.51"/><line class="cls-1" x1="1748.06" y1="1080" x2="1748.06"/><line class="cls-1" x1="1757.61" y1="1080" x2="1757.61"/><line class="cls-1" x1="1767.16" y1="1080" x2="1767.16"/><line class="cls-1" x1="1776.72" y1="1080" x2="1776.72"/><line class="cls-1" x1="1786.27" y1="1080" x2="1786.27"/><line class="cls-1" x1="1795.82" y1="1080" x2="1795.82"/><line class="cls-1" x1="1805.37" y1="1080" x2="1805.37"/><line class="cls-1" x1="1814.93" y1="1080" x2="1814.93"/><line class="cls-1" x1="1824.48" y1="1080" x2="1824.48"/><line class="cls-1" x1="1834.03" y1="1080" x2="1834.03"/><line class="cls-1" x1="1843.58" y1="1080" x2="1843.58"/><line class="cls-1" x1="1853.13" y1="1080" x2="1853.13"/><line class="cls-1" x1="1862.69" y1="1080" x2="1862.69"/><line class="cls-1" x1="1872.24" y1="1080" x2="1872.24"/><line class="cls-1" x1="1881.79" y1="1080" x2="1881.79"/><line class="cls-1" x1="1891.34" y1="1080" x2="1891.34"/><line class="cls-1" x1="1900.9" y1="1080" x2="1900.9"/><line class="cls-1" x1="1910.45" y1="1080" x2="1910.45"/></svg>